<?xml version="1.0" encoding="UTF-8" standalone="no"?>
<svg
   xmlns:dc="http://purl.org/dc/elements/1.1/"
   xmlns:cc="http://creativecommons.org/ns#"
   xmlns:rdf="http://www.w3.org/1999/02/22-rdf-syntax-ns#"
   xmlns:svg="http://www.w3.org/2000/svg"
   xmlns="http://www.w3.org/2000/svg"
   xmlns:sodipodi="http://sodipodi.sourceforge.net/DTD/sodipodi-0.dtd"
   xmlns:inkscape="http://www.inkscape.org/namespaces/inkscape"
   version="1.1"
   width="170.06372"
   height="280.78888"
   id="svg883"
   viewBox="0 0 170.06372 280.78888"
   sodipodi:docname="logo.cdr"
   inkscape:version="1.0.2 (e86c8708, 2021-01-15)">
  <metadata
     id="metadata889">
    <rdf:RDF>
      <cc:Work
         rdf:about="">
        <dc:format>image/svg+xml</dc:format>
        <dc:type
           rdf:resource="http://purl.org/dc/dcmitype/StillImage" />
        <dc:title></dc:title>
      </cc:Work>
    </rdf:RDF>
  </metadata>
  <defs
     id="defs887" />
  <sodipodi:namedview
     pagecolor="#ffffff"
     bordercolor="#666666"
     borderopacity="1"
     objecttolerance="10"
     gridtolerance="10"
     guidetolerance="10"
     inkscape:pageopacity="0"
     inkscape:pageshadow="2"
     inkscape:window-width="1440"
     inkscape:window-height="797"
     id="namedview885"
     showgrid="false"
     inkscape:zoom="1.6861111"
     inkscape:cx="20.726023"
     inkscape:cy="113.2437"
     inkscape:window-x="0"
     inkscape:window-y="25"
     inkscape:window-maximized="1"
     inkscape:current-layer="svg883"
     fit-margin-top="0"
     fit-margin-left="0"
     fit-margin-right="0"
     fit-margin-bottom="0" />
  <g
     id="Layer1000"
     style="fill:#000000;fill-opacity:1"
     transform="translate(-58.968125,-39.6055)">
    <path
       d="m 66.2719,279.7274 h 3.7455 v 2.8265 H 67.055 66.1018 c -0.3406,0.1134 -0.6696,0.238 -0.9877,0.3744 -0.3177,0.1363 -0.6242,0.2952 -0.9194,0.4766 -0.2948,0.2043 -0.5618,0.4259 -0.7999,0.664 -0.2385,0.2384 -0.4484,0.5051 -0.6302,0.8003 -0.1589,0.2497 -0.3008,0.5164 -0.4255,0.8003 -0.1247,0.2835 -0.2212,0.5844 -0.2896,0.9021 -0.0225,0.2043 -0.0454,0.4086 -0.0679,0.6129 -0.0226,0.2043 -0.0342,0.4086 -0.0342,0.6129 0,0.1134 0,0.2216 0,0.3238 0,0.1021 0.0116,0.2099 0.0342,0.3233 0.0454,0.3407 0.1246,0.6696 0.2385,0.9874 0.1134,0.3177 0.2497,0.6245 0.4086,0.9193 0.1588,0.2498 0.3289,0.4883 0.5107,0.7151 0.1814,0.2272 0.3857,0.4315 0.6129,0.6129 0.2498,0.2272 0.5164,0.4259 0.8,0.596 0.2839,0.1701 0.5735,0.3121 0.8682,0.4255 0.5225,0.1364 1.0445,0.2385 1.5665,0.3065 0.522,0.0684 1.0444,0.0909 1.5665,0.0684 0.2268,0.0225 0.4597,0.0281 0.6977,0.0168 0.2385,-0.0112 0.4714,-0.0285 0.6982,-0.051 v 2.5538 h -2.7923 l -1.6682,-0.068 c -0.4995,-0.0909 -0.9817,-0.2272 -1.4474,-0.4086 -0.4653,-0.1818 -0.9137,-0.3973 -1.3449,-0.6471 -0.3406,-0.2043 -0.664,-0.4428 -0.9704,-0.7151 -0.3065,-0.2722 -0.596,-0.5562 -0.8683,-0.8514 -0.2268,-0.2722 -0.4428,-0.5618 -0.6471,-0.8683 -0.2043,-0.3064 -0.3857,-0.6185 -0.5445,-0.9362 -0.1139,-0.2498 -0.216,-0.5052 -0.3065,-0.7662 -0.0909,-0.261 -0.1705,-0.5276 -0.2385,-0.8003 -0.0225,-0.1359 -0.0454,-0.2666 -0.068,-0.3913 -0.0229,-0.1251 -0.0454,-0.2554 -0.0683,-0.3917 -0.0225,-0.4541 -0.0225,-0.8969 0,-1.328 0.0229,-0.4315 0.0796,-0.8627 0.1705,-1.2938 0.068,-0.3861 0.1701,-0.7549 0.3065,-1.1068 0.1359,-0.3519 0.2947,-0.6982 0.4765,-1.0384 0.2498,-0.4315 0.5333,-0.8401 0.8514,-1.2258 0.3177,-0.3861 0.6584,-0.7493 1.0215,-1.0899 0.2498,-0.2269 0.5052,-0.4368 0.7662,-0.6298 0.261,-0.1931 0.5389,-0.3688 0.8341,-0.5277 0.454,-0.2043 0.9194,-0.3748 1.3959,-0.5107 0.477,-0.1364 0.9648,-0.216 1.4643,-0.2385 z m 14.2333,-0.0338 c 0.3857,0 0.7774,0.0338 1.1748,0.1021 0.3973,0.068 0.7774,0.1702 1.1406,0.3065 0.5674,0.2043 1.1067,0.4653 1.6175,0.783 0.5107,0.3178 0.9817,0.6922 1.4128,1.1237 0.4316,0.4311 0.8116,0.9081 1.141,1.4301 0.329,0.5221 0.5843,1.0783 0.7661,1.6687 0.1814,0.5674 0.3009,1.1574 0.3576,1.7703 0.0567,0.613 0.0623,1.2259 0.0168,1.8388 -0.0454,0.5904 -0.1701,1.1691 -0.3744,1.7366 -0.2043,0.5674 -0.4653,1.1124 -0.7834,1.6344 -0.3177,0.5224 -0.6921,1.0046 -1.1237,1.4474 -0.4311,0.4424 -0.9077,0.8342 -1.4301,1.1748 -0.4991,0.2948 -1.0384,0.5333 -1.6171,0.7151 -0.5792,0.1813 -1.1635,0.2948 -1.7539,0.3402 -0.1134,0.0229 -0.2212,0.0398 -0.3234,0.0511 -0.1021,0.0116 -0.2099,0.0173 -0.3233,0.0173 -0.1134,0.0225 -0.2216,0.0338 -0.3238,0.0338 -0.1021,0 -0.2099,0 -0.3233,0 -0.3857,0 -0.7661,-0.0226 -1.1406,-0.068 -0.3748,-0.0455 -0.7548,-0.1134 -1.1409,-0.2043 -0.5675,-0.1818 -1.1181,-0.4255 -1.6514,-0.732 -0.5332,-0.3064 -1.0271,-0.6527 -1.4812,-1.0388 -0.4311,-0.4311 -0.8228,-0.9021 -1.1747,-1.4128 -0.3519,-0.5108 -0.6415,-1.0501 -0.8683,-1.6176 -0.1589,-0.454 -0.2839,-0.9081 -0.3744,-1.3621 -0.0909,-0.4541 -0.1364,-0.9194 -0.1364,-1.396 0,-0.068 0,-0.1363 0,-0.2043 0,-0.068 0,-0.1363 0,-0.2043 0,-0.0455 0.0057,-0.1022 0.0169,-0.1701 0.0117,-0.0684 0.0173,-0.1364 0.0173,-0.2043 0.0455,-0.6129 0.1645,-1.2146 0.3576,-1.805 0.1926,-0.59 0.4367,-1.1462 0.7319,-1.6682 0.3177,-0.5224 0.6753,-1.0046 1.0726,-1.4474 0.3974,-0.4424 0.8458,-0.8454 1.3449,-1.2086 0.5224,-0.3406 1.0669,-0.6189 1.6344,-0.8345 0.5679,-0.2156 1.1466,-0.3688 1.7366,-0.4597 0.2952,-0.0454 0.596,-0.0792 0.9025,-0.1021 0.3064,-0.0225 0.6072,-0.0225 0.9024,0 z m 0.4086,2.7581 c -0.0908,0 -0.1761,-0.006 -0.2553,-0.0173 -0.0797,-0.0112 -0.1533,-0.0169 -0.2216,-0.0169 -0.0905,-0.0229 -0.1758,-0.0342 -0.2554,-0.0342 -0.0792,0 -0.1645,0 -0.2554,0 -0.1134,0 -0.2268,0.006 -0.3402,0.0173 -0.1134,0.0113 -0.2273,0.0169 -0.3407,0.0169 -0.1134,0.0225 -0.2268,0.0455 -0.3406,0.068 -0.1134,0.0229 -0.2268,0.0567 -0.3402,0.1021 -0.4541,0.1135 -0.874,0.2896 -1.2601,0.5281 -0.3856,0.2381 -0.7375,0.5389 -1.0557,0.9021 -0.2722,0.2952 -0.5107,0.6016 -0.715,0.9193 -0.2043,0.3178 -0.3744,0.6697 -0.5108,1.0558 -0.0905,0.3856 -0.1588,0.783 -0.2043,1.1916 -0.0454,0.4086 -0.0567,0.8172 -0.0338,1.2258 0.0226,0.3861 0.0905,0.7718 0.2043,1.1579 0.1135,0.3861 0.261,0.7492 0.4424,1.0895 0.1818,0.3631 0.4086,0.6869 0.6813,0.9704 0.2723,0.284 0.5675,0.5506 0.8852,0.8004 0.3406,0.2268 0.6982,0.4142 1.0726,0.5618 0.3744,0.1476 0.7549,0.2441 1.1405,0.2896 0.1364,0.0225 0.2727,0.0394 0.4087,0.051 0.1363,0.0113 0.2614,0.0169 0.3748,0.0169 0.2723,0 0.5445,-0.0225 0.8172,-0.0679 0.2723,-0.0455 0.5333,-0.1139 0.783,-0.2043 0.3861,-0.1139 0.7436,-0.2727 1.0726,-0.477 0.3294,-0.2043 0.6415,-0.4541 0.9363,-0.7489 0.2952,-0.2497 0.5562,-0.5449 0.7834,-0.8856 0.2268,-0.3402 0.4086,-0.6921 0.5446,-1.0553 0.1138,-0.2726 0.193,-0.5449 0.2384,-0.8172 0.0455,-0.2727 0.068,-0.5562 0.068,-0.8514 0,-0.1134 0,-0.2329 0,-0.3575 0,-0.1251 -0.0112,-0.2441 -0.0338,-0.3576 0.0226,-0.4086 -0.0112,-0.8059 -0.1021,-1.1916 -0.0909,-0.3861 -0.2273,-0.7605 -0.4086,-1.1237 -0.1818,-0.3861 -0.4086,-0.7323 -0.6813,-1.0388 -0.2723,-0.3065 -0.5675,-0.5731 -0.8852,-0.7999 -0.3177,-0.2498 -0.664,-0.4484 -1.0384,-0.596 -0.3748,-0.1476 -0.7661,-0.2442 -1.1748,-0.2896 z m 14.9826,-2.7243 c 0.1814,-0.0225 0.3688,-0.0338 0.5618,-0.0338 0.1931,0 0.3688,0 0.5277,0 0.1818,0 0.3631,0.006 0.5449,0.0169 0.1814,0.0112 0.3519,0.0281 0.5108,0.0511 0.7038,0.1363 1.3617,0.3744 1.9747,0.715 0.6129,0.3407 1.1465,0.7718 1.6006,1.2938 0.4995,-0.59 1.0895,-1.0553 1.7704,-1.3959 0.6812,-0.3407 1.4076,-0.545 2.1793,-0.6129 0.4086,-0.023 0.8116,-0.0169 1.209,0.0169 0.3973,0.0341 0.7886,0.1077 1.1747,0.2216 0.3177,0.0679 0.6129,0.1644 0.8852,0.2891 0.2727,0.1251 0.522,0.2783 0.7492,0.4597 0.2498,0.1818 0.4879,0.3805 0.7151,0.596 0.2268,0.2156 0.4311,0.4484 0.6129,0.6982 0.2268,0.3632 0.4143,0.7376 0.5619,1.1237 0.1476,0.3857 0.2666,0.7943 0.3575,1.2258 v 11.2026 h -2.8261 v -10.011 c -0.0229,-0.2951 -0.0683,-0.5903 -0.1363,-0.8851 -0.068,-0.2952 -0.1589,-0.5904 -0.2723,-0.8856 -0.2272,-0.3857 -0.528,-0.7151 -0.9025,-0.9874 -0.3744,-0.2722 -0.789,-0.4428 -1.2431,-0.5107 -0.0905,-0.023 -0.1814,-0.0398 -0.2722,-0.0511 -0.0909,-0.0113 -0.1931,-0.0169 -0.3065,-0.0169 -0.3406,0 -0.6753,0.0623 -1.0046,0.187 -0.329,0.1251 -0.6298,0.3121 -0.9021,0.5619 -0.2952,0.2726 -0.5337,0.6016 -0.7151,0.9877 -0.1818,0.3857 -0.2726,0.7943 -0.2726,1.2258 v 10.3854 h -2.8941 v -10.2494 c -0.0229,-0.4766 -0.1307,-0.9363 -0.3237,-1.3791 -0.1927,-0.4424 -0.4597,-0.8228 -0.7999,-1.1406 -0.1589,-0.1363 -0.3407,-0.2497 -0.545,-0.3406 -0.2043,-0.0909 -0.4086,-0.1476 -0.6129,-0.1701 -0.068,0 -0.1303,-0.006 -0.1874,-0.0169 -0.0567,-0.0117 -0.1078,-0.0173 -0.1532,-0.0173 -0.0451,-0.0225 -0.0962,-0.0338 -0.1533,-0.0338 -0.0567,0 -0.119,0 -0.187,0 -0.1363,0 -0.2666,0.006 -0.3917,0.0169 -0.1247,0.0113 -0.2441,0.0398 -0.3575,0.0853 -0.4766,0.1134 -0.8965,0.3402 -1.26,0.6808 -0.3632,0.3407 -0.6355,0.7376 -0.8173,1.1917 -0.0679,0.2272 -0.119,0.4484 -0.1532,0.664 -0.0338,0.2155 -0.0511,0.4484 -0.0511,0.6981 0,0.0226 0,0.0568 0,0.1022 0,0.0454 0.0117,0.0792 0.0342,0.1022 0,0.0454 0,0.0852 0,0.119 0,0.0342 0,0.074 0,0.1194 v 9.5682 h -2.8944 v -10.6239 c 0,-0.2952 0.0285,-0.5847 0.0853,-0.8683 0.0567,-0.2839 0.1307,-0.5731 0.2211,-0.8683 0.2498,-0.5674 0.5792,-1.0838 0.9878,-1.5491 0.4086,-0.4658 0.8739,-0.8683 1.3959,-1.209 0.3177,-0.1818 0.6415,-0.3294 0.9705,-0.4428 0.3293,-0.1134 0.664,-0.2043 1.0046,-0.2722 z m 27.3767,0 c 0.4995,0 0.9934,0.0285 1.4812,0.0852 0.4882,0.0567 0.9704,0.1533 1.4474,0.2896 0.9307,0.3402 1.7764,0.8341 2.5365,1.4812 0.7605,0.6467 1.3907,1.4016 1.8898,2.2643 0.2043,0.4311 0.3749,0.8795 0.5112,1.3448 0.1359,0.4653 0.2268,0.948 0.2723,1.4475 0,0.0904 0.006,0.1813 0.0169,0.2722 0.0112,0.0909 0.0173,0.1814 0.0173,0.2723 0.0225,0.0909 0.0337,0.1818 0.0337,0.2727 0,0.0905 0,0.1814 0,0.2722 0,0.3407 -0.0169,0.6753 -0.051,1.0047 -0.0338,0.329 -0.0966,0.6523 -0.187,0.9704 -0.1139,0.4991 -0.2727,0.9874 -0.477,1.4639 -0.2043,0.477 -0.4541,0.9311 -0.7493,1.3622 -0.2493,0.4311 -0.5445,0.8229 -0.8852,1.1748 -0.3406,0.3519 -0.715,0.6752 -1.1236,0.9704 -0.4086,0.2723 -0.8454,0.4939 -1.3111,0.664 -0.4653,0.1701 -0.9363,0.2779 -1.4128,0.3233 -0.1364,0.0455 -0.2783,0.074 -0.4259,0.0853 -0.1472,0.0113 -0.3005,0.0286 -0.4597,0.0511 -0.1589,0.0225 -0.3121,0.0342 -0.4597,0.0342 -0.1472,0 -0.2892,0 -0.4255,0 -0.0909,0 -0.1874,0 -0.2896,0 -0.1021,0 -0.1982,0 -0.2891,0 -0.1134,0 -0.2156,-0.006 -0.3065,-0.0173 -0.0909,-0.0113 -0.193,-0.0282 -0.3064,-0.0511 -0.5221,-0.0454 -1.0216,-0.1589 -1.4985,-0.3402 -0.4766,-0.1818 -0.9077,-0.4428 -1.2938,-0.7835 v -2.894 c 0.3631,0.3402 0.7605,0.6185 1.1916,0.8341 0.4315,0.2156 0.8856,0.38 1.3622,0.4939 0.2272,0.0454 0.4484,0.0848 0.664,0.119 0.2155,0.0342 0.4371,0.0398 0.6639,0.0169 0.1135,0 0.2212,0 0.3234,0 0.1021,0 0.2103,-0.0113 0.3237,-0.0338 0.0909,0 0.1931,-0.0117 0.3065,-0.0342 0.1134,-0.0225 0.2156,-0.0454 0.3064,-0.0679 0.3857,-0.0909 0.7433,-0.2216 1.0726,-0.3918 0.329,-0.1701 0.6411,-0.3688 0.9363,-0.596 0.6358,-0.4766 1.1237,-1.0726 1.4643,-1.7877 0.3402,-0.715 0.4995,-1.4582 0.4766,-2.23 0.0454,-0.4995 0.0342,-0.9878 -0.0342,-1.4643 -0.068,-0.4766 -0.1926,-0.9423 -0.3744,-1.396 -0.2268,-0.3635 -0.471,-0.715 -0.732,-1.0557 -0.261,-0.3406 -0.5393,-0.6583 -0.8345,-0.9535 -0.2948,-0.2043 -0.6012,-0.3801 -0.9194,-0.5277 -0.3177,-0.1476 -0.6579,-0.2554 -1.0215,-0.3233 -0.2268,-0.0455 -0.448,-0.0853 -0.664,-0.1195 -0.2155,-0.0338 -0.4367,-0.0511 -0.6639,-0.0511 -0.068,0 -0.136,0 -0.2044,0 -0.0679,0 -0.1246,0.0113 -0.1701,0.0342 -0.0679,0 -0.1363,0.006 -0.2043,0.0169 -0.0679,0.0113 -0.1363,0.0173 -0.2043,0.0173 -0.8397,0.1589 -1.589,0.4991 -2.2473,1.0215 -0.6584,0.5221 -1.1579,1.1804 -1.4981,1.9747 -0.1589,0.4995 -0.2839,1.0103 -0.3748,1.5323 -0.0905,0.522 -0.136,1.0557 -0.136,1.6006 v 14.3014 h -2.7923 v -15.5956 c 0.0226,-0.4765 0.0909,-0.9591 0.2043,-1.447 0.1135,-0.4882 0.2723,-0.9479 0.4766,-1.379 0.2272,-0.4541 0.477,-0.8796 0.7493,-1.2769 0.2722,-0.3974 0.5904,-0.7662 0.9535,-1.1068 0.3403,-0.3403 0.7207,-0.6467 1.1406,-0.9194 0.4199,-0.2723 0.857,-0.4995 1.3111,-0.6809 0.454,-0.1818 0.925,-0.3121 1.4128,-0.3917 0.4882,-0.0792 0.9821,-0.119 1.4812,-0.119 z m 11.067,0.1021 h 2.894 v 9.4664 c 0,0.3403 0.0342,0.6696 0.1022,0.9874 0.0683,0.3177 0.1705,0.6354 0.3064,0.9535 0.1589,0.2948 0.3463,0.5675 0.5619,0.8172 0.2159,0.2498 0.4597,0.4653 0.7323,0.6467 0.2269,0.1138 0.4597,0.2043 0.6978,0.2727 0.2385,0.068 0.4713,0.1022 0.6982,0.1022 0.1363,0.0225 0.2722,0.0454 0.4086,0.0679 0.1363,0.0225 0.2722,0.0342 0.4086,0.0342 0.1818,-0.0229 0.3575,-0.0454 0.5276,-0.0684 0.1706,-0.0225 0.335,-0.0454 0.4939,-0.0679 0.2723,-0.0909 0.5337,-0.2043 0.783,-0.3407 0.2498,-0.1359 0.477,-0.2948 0.6813,-0.4765 0.2268,-0.1818 0.4143,-0.3918 0.5619,-0.6299 0.1475,-0.2384 0.2666,-0.4938 0.3575,-0.7661 0.0679,-0.2497 0.119,-0.4995 0.1532,-0.7492 0.0338,-0.2498 0.0623,-0.4995 0.0849,-0.7493 v -9.5002 h 2.9286 v 10.4538 c -0.0229,0.3631 -0.0796,0.7094 -0.1705,1.0384 -0.0905,0.3294 -0.2156,0.6527 -0.3745,0.9704 -0.1363,0.2952 -0.3008,0.5848 -0.4938,0.8683 -0.1927,0.2839 -0.4143,0.5506 -0.664,0.8003 -0.2494,0.2498 -0.522,0.4766 -0.8172,0.6809 -0.2948,0.2043 -0.6013,0.3861 -0.9194,0.545 -0.2948,0.1588 -0.6129,0.2839 -0.9531,0.3744 -0.3407,0.0909 -0.6926,0.1476 -1.0557,0.1705 -0.2043,0.0455 -0.4087,0.0736 -0.613,0.0849 -0.2043,0.0116 -0.4086,0.0173 -0.6129,0.0173 -0.2043,0 -0.4086,-0.006 -0.6129,-0.0173 -0.2043,-0.0113 -0.3973,-0.0394 -0.5787,-0.0849 -0.3177,-0.0229 -0.6302,-0.0627 -0.9367,-0.1194 -0.3064,-0.0567 -0.6072,-0.1533 -0.902,-0.2892 -0.3632,-0.1363 -0.7038,-0.3064 -1.0216,-0.5108 -0.3181,-0.2043 -0.6129,-0.4315 -0.8855,-0.6812 -0.2269,-0.2498 -0.4424,-0.5108 -0.6467,-0.7831 -0.2043,-0.2722 -0.3749,-0.5562 -0.5108,-0.8514 -0.1818,-0.3402 -0.3237,-0.6921 -0.4259,-1.0553 -0.1021,-0.3631 -0.1645,-0.738 -0.187,-1.1237 z m 17.2978,-4.0861 h 2.9283 v 4.0861 h 5.7884 v 2.6222 h -5.7205 v 8.9552 c 0,0.068 0.006,0.1191 0.0173,0.1533 0.0113,0.0341 0.0169,0.0736 0.0169,0.119 0.0455,0.1818 0.1078,0.3519 0.1874,0.5108 0.0793,0.1588 0.187,0.2952 0.3234,0.4086 0.1818,0.1363 0.3917,0.2385 0.6298,0.3064 0.2385,0.0684 0.4713,0.1138 0.6982,0.1364 l 3.7796,-0.0342 v 2.588 h -4.7332 c -0.2948,-0.0225 -0.59,-0.0797 -0.8852,-0.1701 -0.2952,-0.0909 -0.5674,-0.216 -0.8172,-0.3749 -0.2952,-0.1588 -0.5731,-0.3519 -0.8341,-0.5787 -0.261,-0.2268 -0.4826,-0.4882 -0.664,-0.783 -0.1588,-0.2498 -0.2896,-0.5052 -0.3917,-0.7662 -0.1022,-0.261 -0.1758,-0.528 -0.2212,-0.8003 -0.0229,-0.1363 -0.0398,-0.2666 -0.0511,-0.3917 -0.0116,-0.1247 -0.0173,-0.2437 -0.0173,-0.3576 -0.0225,-0.1134 -0.0338,-0.2324 -0.0338,-0.3575 0,-0.1247 0,-0.2554 0,-0.3913 z m 18.796,3.984 c 0.0909,0.0229 0.1874,0.0342 0.2896,0.0342 0.1021,0 0.1986,0 0.2891,0 0.5679,0.0225 1.1297,0.1134 1.6855,0.2722 0.5562,0.1589 1.0843,0.3861 1.5834,0.6813 0.2952,0.1134 0.5679,0.2554 0.8172,0.4255 0.2497,0.1701 0.4882,0.3688 0.7151,0.596 0.5904,0.5446 1.0669,1.1748 1.4301,1.8899 0.3636,0.715 0.5904,1.4695 0.6813,2.2642 v 9.7045 h -2.7923 v -9.0236 c -0.0225,-0.3177 -0.0853,-0.6467 -0.1874,-0.9874 -0.1022,-0.3406 -0.2437,-0.6583 -0.4255,-0.9535 -0.3407,-0.59 -0.7943,-1.0782 -1.3622,-1.4639 -0.5675,-0.3861 -1.1916,-0.6359 -1.8725,-0.7493 -0.1589,-0.0454 -0.335,-0.074 -0.5281,-0.0852 -0.1926,-0.0113 -0.38,-0.0169 -0.5618,-0.0169 -0.068,0 -0.1416,0 -0.2212,0 -0.0792,0 -0.1532,0.0112 -0.2212,0.0342 -0.0684,0 -0.142,0.006 -0.2216,0.0168 -0.0792,0.0113 -0.1532,0.0169 -0.2212,0.0169 -0.7038,0.023 -1.3621,0.1987 -1.975,0.5281 -0.613,0.329 -1.1121,0.7887 -1.4981,1.3791 -0.2952,0.4765 -0.5221,0.9873 -0.6809,1.5322 -0.1589,0.5446 -0.2385,1.112 -0.2385,1.7024 0,0.068 0,0.142 0,0.2212 0,0.0797 0,0.1645 0,0.2554 0,0.0909 0.006,0.1762 0.0169,0.2554 0.0116,0.0796 0.0285,0.1532 0.0511,0.2216 0.0229,0.3402 0.0796,0.6752 0.1705,1.0042 0.0905,0.3294 0.2155,0.6528 0.3744,0.9705 0.1589,0.2952 0.3406,0.5735 0.5449,0.8345 0.2044,0.261 0.4199,0.5051 0.6467,0.7319 0.2498,0.2269 0.5225,0.4199 0.8173,0.5788 0.2952,0.1588 0.6016,0.2839 0.9193,0.3748 0.2498,0.0905 0.5108,0.1589 0.7835,0.2043 0.2722,0.0455 0.5445,0.068 0.8172,0.068 0.0454,0 0.0848,0 0.119,0 0.0342,0 0.0624,-0.0113 0.0853,-0.0342 0.0454,0 0.0848,0 0.119,0 0.0342,0 0.0624,0 0.0853,0 0.3177,-0.0225 0.6185,-0.0792 0.9021,-0.1701 0.2839,-0.0909 0.5618,-0.2156 0.8345,-0.3745 0.2952,-0.1817 0.5731,-0.3917 0.8341,-0.6302 0.261,-0.238 0.4826,-0.4934 0.664,-0.7661 v 3.2689 c -0.5221,0.3861 -1.0895,0.6813 -1.7024,0.8856 -0.613,0.2043 -1.2488,0.3289 -1.9071,0.3744 -0.136,0.0225 -0.2667,0.0342 -0.3914,0.0342 -0.125,0 -0.2553,0 -0.3917,0 -0.2722,-0.023 -0.5389,-0.0511 -0.8003,-0.0853 -0.261,-0.0342 -0.5164,-0.0853 -0.7661,-0.1532 -0.4312,-0.0909 -0.8454,-0.2385 -1.2428,-0.4428 -0.3973,-0.2043 -0.7774,-0.4424 -1.1405,-0.7151 -0.3181,-0.2497 -0.6246,-0.5164 -0.9194,-0.7999 -0.2952,-0.2839 -0.5674,-0.5848 -0.8172,-0.9025 -0.2497,-0.3406 -0.477,-0.6982 -0.6813,-1.0726 -0.2043,-0.3744 -0.3744,-0.7549 -0.5107,-1.1406 -0.136,-0.454 -0.2381,-0.9137 -0.3065,-1.379 -0.068,-0.4657 -0.1021,-0.9367 -0.1021,-1.4133 0,-0.4315 0.0341,-0.857 0.1021,-1.2769 0.0684,-0.4198 0.1589,-0.8341 0.2727,-1.2427 0.1359,-0.4315 0.3064,-0.8458 0.5107,-1.2431 0.2043,-0.3973 0.4312,-0.7774 0.6809,-1.1406 0.2498,-0.3177 0.5164,-0.6129 0.8003,-0.8852 0.2836,-0.2726 0.5844,-0.5224 0.9021,-0.7492 0.3181,-0.2498 0.664,-0.4653 1.0388,-0.6471 0.3745,-0.1814 0.7549,-0.3177 1.1406,-0.4086 0.4766,-0.1359 0.9648,-0.2381 1.4643,-0.3065 0.4995,-0.0679 0.9986,-0.0909 1.4981,-0.0679 z m 16.0041,15.8678 h 0.6471 l -0.4087,1.5323 c 0.2498,-0.0226 0.4935,-0.0226 0.732,0 0.2385,0.0225 0.4709,0.0679 0.6982,0.1363 0.2497,0.068 0.4822,0.1532 0.6977,0.2554 0.216,0.1021 0.4259,0.2324 0.6302,0.3913 0.1589,0.1363 0.2892,0.2896 0.3914,0.4597 0.1021,0.1705 0.1761,0.3463 0.2216,0.528 0.0225,0.068 0.0398,0.136 0.051,0.2043 0.0113,0.068 0.0169,0.1476 0.0169,0.2381 0,0.1138 -0.0112,0.2216 -0.0342,0.3238 -0.0225,0.1021 -0.0567,0.1987 -0.1021,0.2891 -0.0451,0.1818 -0.1303,0.3576 -0.2554,0.5281 -0.1247,0.1701 -0.2666,0.3121 -0.4255,0.4255 -0.3857,0.2723 -0.8059,0.4826 -1.26,0.6298 -0.4536,0.1476 -0.9194,0.2103 -1.3959,0.1874 -0.068,0 -0.1303,0 -0.1874,0 -0.0568,0 -0.1078,0 -0.1533,0 -0.045,0 -0.0961,-0.006 -0.1532,-0.0169 -0.0567,-0.0112 -0.119,-0.0173 -0.187,-0.0173 -0.4995,-0.0679 -0.9934,-0.1701 -1.4812,-0.3064 -0.4883,-0.136 -0.9592,-0.3065 -1.4133,-0.5108 l 0.4087,-0.9531 c 0.4311,0.2043 0.8739,0.38 1.3279,0.5276 0.4541,0.1476 0.9081,0.2667 1.3622,0.3576 0.068,0.0225 0.1359,0.0341 0.2043,0.0341 0.068,0 0.1359,0 0.2043,0 0.1359,0 0.2723,-0.0116 0.4086,-0.0341 0.1359,-0.0226 0.261,-0.0568 0.3744,-0.1022 0.1589,-0.068 0.3009,-0.1532 0.4255,-0.2554 0.1251,-0.1021 0.2329,-0.2099 0.3238,-0.3233 0.0225,-0.0455 0.0454,-0.0909 0.0679,-0.1364 0.023,-0.0454 0.0455,-0.0909 0.068,-0.1363 0,-0.0455 0.006,-0.0905 0.0173,-0.1359 0.0113,-0.0455 0.0169,-0.0909 0.0169,-0.1364 0,-0.1588 -0.0225,-0.3064 -0.068,-0.4428 -0.0454,-0.1359 -0.1021,-0.261 -0.1705,-0.3744 -0.0905,-0.1134 -0.1983,-0.2156 -0.3233,-0.3065 -0.1247,-0.0908 -0.2554,-0.1588 -0.3918,-0.2043 -0.1359,-0.0454 -0.2722,-0.0852 -0.4086,-0.119 -0.1359,-0.0342 -0.2835,-0.0511 -0.4424,-0.0511 -0.0454,0 -0.0965,0 -0.1532,0 -0.0567,0 -0.1078,0.0113 -0.1532,0.0338 -0.0684,0 -0.1307,0.006 -0.1874,0.0173 -0.0567,0.0113 -0.1078,0.0169 -0.1533,0.0169 -0.0454,0.0225 -0.0965,0.0398 -0.1532,0.0511 -0.0567,0.0112 -0.119,0.0285 -0.1874,0.051 z m 1.9408,-15.8678 h 3.7455 v 2.8265 h -2.9624 -0.9532 c -0.3406,0.1134 -0.6696,0.238 -0.9877,0.3744 -0.3177,0.1363 -0.6242,0.2952 -0.9194,0.4766 -0.2948,0.2043 -0.5618,0.4259 -0.7999,0.664 -0.2385,0.2384 -0.4484,0.5051 -0.6302,0.8003 -0.1589,0.2497 -0.3008,0.5164 -0.4255,0.8003 -0.1247,0.2835 -0.2212,0.5844 -0.2896,0.9021 -0.0225,0.2043 -0.0454,0.4086 -0.0679,0.6129 -0.0226,0.2043 -0.0342,0.4086 -0.0342,0.6129 0,0.1134 0,0.2216 0,0.3238 0,0.1021 0.0116,0.2099 0.0342,0.3233 0.0454,0.3407 0.1246,0.6696 0.2385,0.9874 0.1134,0.3177 0.2497,0.6245 0.4086,0.9193 0.1588,0.2498 0.3289,0.4883 0.5107,0.7151 0.1814,0.2272 0.3857,0.4315 0.6129,0.6129 0.2498,0.2272 0.5164,0.4259 0.8,0.596 0.2839,0.1701 0.5735,0.3121 0.8682,0.4255 0.5225,0.1364 1.0445,0.2385 1.5665,0.3065 0.522,0.0684 1.0445,0.0909 1.5665,0.0684 0.2268,0.0225 0.4597,0.0281 0.6977,0.0168 0.2385,-0.0112 0.4714,-0.0285 0.6982,-0.051 v 2.5538 h -2.7923 l -1.6682,-0.068 c -0.4995,-0.0909 -0.9817,-0.2272 -1.4474,-0.4086 -0.4653,-0.1818 -0.9137,-0.3973 -1.3449,-0.6471 -0.3406,-0.2043 -0.664,-0.4428 -0.9704,-0.7151 -0.3065,-0.2722 -0.596,-0.5562 -0.8683,-0.8514 -0.2268,-0.2722 -0.4428,-0.5618 -0.6471,-0.8683 -0.2043,-0.3064 -0.3857,-0.6185 -0.5445,-0.9362 -0.1139,-0.2498 -0.216,-0.5052 -0.3065,-0.7662 -0.0909,-0.261 -0.1705,-0.5276 -0.2385,-0.8003 -0.0225,-0.1359 -0.0454,-0.2666 -0.068,-0.3913 -0.0229,-0.1251 -0.0454,-0.2554 -0.0683,-0.3917 -0.0225,-0.4541 -0.0225,-0.8969 0,-1.328 0.0229,-0.4315 0.0796,-0.8627 0.1705,-1.2938 0.068,-0.3861 0.1701,-0.7549 0.3065,-1.1068 0.1359,-0.3519 0.2947,-0.6982 0.4765,-1.0384 0.2498,-0.4315 0.5333,-0.8401 0.8514,-1.2258 0.3177,-0.3861 0.6584,-0.7493 1.0215,-1.0899 0.2498,-0.2269 0.5052,-0.4368 0.7662,-0.6298 0.261,-0.1931 0.5389,-0.3688 0.8341,-0.5277 0.454,-0.2043 0.9194,-0.3748 1.3959,-0.5107 0.477,-0.1364 0.9648,-0.216 1.4643,-0.2385 z"
       style="fill:#000000;fill-opacity:1;fill-rule:evenodd"
       id="path858" />
    <path
       d="m 202.3737,279.7274 c 0.0908,0.0229 0.1874,0.0342 0.2895,0.0342 0.1022,0 0.1987,0 0.2892,0 0.5678,0.0225 1.1297,0.1134 1.6855,0.2722 0.5562,0.1589 1.0842,0.3861 1.5833,0.6813 0.2952,0.1134 0.5679,0.2554 0.8173,0.4255 0.2497,0.1701 0.4882,0.3688 0.715,0.596 0.5904,0.5446 1.067,1.1748 1.4301,1.8899 0.3636,0.715 0.5904,1.4695 0.6813,2.2642 v 9.7045 h -2.7923 v -9.0236 c -0.0225,-0.3177 -0.0852,-0.6467 -0.1874,-0.9874 -0.1021,-0.3406 -0.2437,-0.6583 -0.4255,-0.9535 -0.3406,-0.59 -0.7943,-1.0782 -1.3621,-1.4639 -0.5675,-0.3861 -1.1917,-0.6359 -1.8725,-0.7493 -0.1589,-0.0454 -0.3351,-0.074 -0.5281,-0.0852 -0.1926,-0.0113 -0.3801,-0.0169 -0.5618,-0.0169 -0.068,0 -0.1416,0 -0.2212,0 -0.0793,0 -0.1533,0.0112 -0.2212,0.0342 -0.0684,0 -0.142,0.006 -0.2216,0.0168 -0.0792,0.0113 -0.1532,0.0169 -0.2212,0.0169 -0.7038,0.023 -1.3622,0.1987 -1.9751,0.5281 -0.6129,0.329 -1.112,0.7887 -1.4981,1.3791 -0.2952,0.4765 -0.522,0.9873 -0.6809,1.5322 -0.1588,0.5446 -0.2384,1.112 -0.2384,1.7024 0,0.068 0,0.142 0,0.2212 0,0.0797 0,0.1645 0,0.2554 0,0.0909 0.006,0.1762 0.0168,0.2554 0.0117,0.0796 0.0286,0.1532 0.0511,0.2216 0.0229,0.3402 0.0797,0.6752 0.1705,1.0042 0.0905,0.3294 0.2156,0.6528 0.3745,0.9705 0.1588,0.2952 0.3406,0.5735 0.5449,0.8345 0.2043,0.261 0.4199,0.5051 0.6467,0.7319 0.2498,0.2269 0.5224,0.4199 0.8172,0.5788 0.2952,0.1588 0.6017,0.2839 0.9194,0.3748 0.2497,0.0905 0.5107,0.1589 0.7834,0.2043 0.2723,0.0455 0.5446,0.068 0.8172,0.068 0.0455,0 0.0849,0 0.1191,0 0.0342,0 0.0623,-0.0113 0.0852,-0.0342 0.0455,0 0.0849,0 0.1191,0 0.0342,0 0.0623,0 0.0852,0 0.3178,-0.0225 0.6186,-0.0792 0.9021,-0.1701 0.2839,-0.0909 0.5618,-0.2156 0.8345,-0.3745 0.2952,-0.1817 0.5731,-0.3917 0.8341,-0.6302 0.261,-0.238 0.4826,-0.4934 0.664,-0.7661 v 3.2689 c -0.522,0.3861 -1.0895,0.6813 -1.7024,0.8856 -0.6129,0.2043 -1.2487,0.3289 -1.9071,0.3744 -0.1359,0.0225 -0.2666,0.0342 -0.3913,0.0342 -0.1251,0 -0.2554,0 -0.3917,0 -0.2723,-0.023 -0.5389,-0.0511 -0.8003,-0.0853 -0.2611,-0.0342 -0.5164,-0.0853 -0.7662,-0.1532 -0.4311,-0.0909 -0.8453,-0.2385 -1.2427,-0.4428 -0.3973,-0.2043 -0.7774,-0.4424 -1.1406,-0.7151 -0.3181,-0.2497 -0.6245,-0.5164 -0.9193,-0.7999 -0.2952,-0.2839 -0.5675,-0.5848 -0.8172,-0.9025 -0.2498,-0.3406 -0.477,-0.6982 -0.6813,-1.0726 -0.2043,-0.3744 -0.3744,-0.7549 -0.5108,-1.1406 -0.1359,-0.454 -0.2381,-0.9137 -0.3064,-1.379 -0.068,-0.4657 -0.1022,-0.9367 -0.1022,-1.4133 0,-0.4315 0.0342,-0.857 0.1022,-1.2769 0.0683,-0.4198 0.1588,-0.8341 0.2726,-1.2427 0.136,-0.4315 0.3065,-0.8458 0.5108,-1.2431 0.2043,-0.3973 0.4311,-0.7774 0.6809,-1.1406 0.2497,-0.3177 0.5164,-0.6129 0.8003,-0.8852 0.2835,-0.2726 0.5844,-0.5224 0.9021,-0.7492 0.3181,-0.2498 0.664,-0.4653 1.0388,-0.6471 0.3744,-0.1814 0.7549,-0.3177 1.1405,-0.4086 0.4766,-0.1359 0.9649,-0.2381 1.4644,-0.3065 0.4995,-0.0679 0.9986,-0.0909 1.4981,-0.0679 z m 2.9282,-5.8569 1.2942,0.3406 c -0.0684,0.3632 -0.1762,0.6926 -0.3238,0.9874 -0.1472,0.2952 -0.3459,0.5679 -0.5956,0.8172 -0.1363,0.1593 -0.2896,0.3008 -0.4597,0.4259 -0.1705,0.1247 -0.3575,0.2325 -0.5618,0.3234 -0.1818,0.0908 -0.3748,0.1644 -0.5791,0.2212 -0.2044,0.0571 -0.4087,0.0852 -0.613,0.0852 -0.3177,0 -0.6298,-0.0281 -0.9362,-0.0852 -0.3065,-0.0568 -0.6073,-0.1416 -0.9025,-0.2554 -0.2268,-0.1134 -0.4536,-0.2043 -0.6809,-0.2723 -0.2268,-0.068 -0.4653,-0.1022 -0.715,-0.1022 -0.2043,0 -0.403,0.023 -0.5961,0.068 -0.1926,0.0455 -0.38,0.1138 -0.5618,0.2043 -0.1588,0.1593 -0.3004,0.335 -0.4255,0.5281 -0.1247,0.193 -0.2328,0.3913 -0.3233,0.5956 l -1.1237,-0.7151 c 0.0905,-0.2268 0.2043,-0.4597 0.3402,-0.6977 0.1364,-0.2385 0.284,-0.4597 0.4428,-0.664 0.1364,-0.1818 0.2952,-0.3407 0.4766,-0.477 0.1818,-0.1359 0.3748,-0.2494 0.5791,-0.3403 0.1134,-0.0454 0.2212,-0.0852 0.3234,-0.1194 0.1021,-0.0338 0.2099,-0.0511 0.3233,-0.0511 0.0909,-0.0225 0.1931,-0.0394 0.3065,-0.0511 0.1138,-0.0112 0.2159,-0.0168 0.3064,-0.0168 0.3182,0.0229 0.6246,0.0679 0.9194,0.1363 0.2952,0.068 0.5904,0.1701 0.8856,0.3065 0.2043,0.0908 0.4255,0.1644 0.664,0.2211 0.2381,0.0568 0.4709,0.0853 0.6977,0.0853 0.0455,0 0.0797,0 0.1022,0 0.0229,0 0.0454,-0.0113 0.0684,-0.0342 0.0454,0 0.0792,0 0.1021,0 0.0225,0 0.0455,0 0.068,0 0.1588,-0.0225 0.3064,-0.0623 0.4428,-0.119 0.1359,-0.0567 0.261,-0.1307 0.3744,-0.2216 0.1818,-0.1589 0.3294,-0.329 0.4428,-0.5108 0.1134,-0.1814 0.193,-0.3744 0.2381,-0.5787 z m 16.0724,5.8231 c 0.3857,0 0.7774,0.0338 1.1748,0.1021 0.3973,0.068 0.7774,0.1702 1.1405,0.3065 0.5675,0.2043 1.1068,0.4653 1.6176,0.783 0.5107,0.3178 0.9817,0.6922 1.4128,1.1237 0.4315,0.4311 0.8116,0.9081 1.141,1.4301 0.3289,0.5221 0.5843,1.0783 0.7661,1.6687 0.1814,0.5674 0.3008,1.1574 0.3575,1.7703 0.0567,0.613 0.0624,1.2259 0.0169,1.8388 -0.0454,0.5904 -0.1701,1.1691 -0.3744,1.7366 -0.2043,0.5674 -0.4653,1.1124 -0.7834,1.6344 -0.3178,0.5224 -0.6922,1.0046 -1.1237,1.4474 -0.4311,0.4424 -0.9077,0.8342 -1.4301,1.1748 -0.4991,0.2948 -1.0384,0.5333 -1.6172,0.7151 -0.5791,0.1813 -1.1635,0.2948 -1.7538,0.3402 -0.1135,0.0229 -0.2212,0.0398 -0.3234,0.0511 -0.1021,0.0116 -0.2099,0.0173 -0.3233,0.0173 -0.1135,0.0225 -0.2216,0.0338 -0.3238,0.0338 -0.1021,0 -0.2099,0 -0.3233,0 -0.3857,0 -0.7662,-0.0226 -1.1406,-0.068 -0.3748,-0.0455 -0.7549,-0.1134 -1.141,-0.2043 -0.5674,-0.1818 -1.118,-0.4255 -1.6513,-0.732 -0.5333,-0.3064 -1.0271,-0.6527 -1.4812,-1.0388 -0.4311,-0.4311 -0.8228,-0.9021 -1.1747,-1.4128 -0.3519,-0.5108 -0.6415,-1.0501 -0.8683,-1.6176 -0.1589,-0.454 -0.284,-0.9081 -0.3745,-1.3621 -0.0908,-0.4541 -0.1363,-0.9194 -0.1363,-1.396 0,-0.068 0,-0.1363 0,-0.2043 0,-0.068 0,-0.1363 0,-0.2043 0,-0.0455 0.006,-0.1022 0.0169,-0.1701 0.0117,-0.0684 0.0173,-0.1364 0.0173,-0.2043 0.0454,-0.6129 0.1645,-1.2146 0.3575,-1.805 0.1927,-0.59 0.4368,-1.1462 0.732,-1.6682 0.3177,-0.5224 0.6752,-1.0046 1.0726,-1.4474 0.3973,-0.4424 0.8457,-0.8454 1.3448,-1.2086 0.5225,-0.3406 1.067,-0.6189 1.6345,-0.8345 0.5678,-0.2156 1.1466,-0.3688 1.7366,-0.4597 0.2952,-0.0454 0.596,-0.0792 0.9024,-0.1021 0.3065,-0.0225 0.6073,-0.0225 0.9025,0 z m 0.4086,2.7581 c -0.0909,0 -0.1761,-0.006 -0.2554,-0.0173 -0.0796,-0.0112 -0.1532,-0.0169 -0.2216,-0.0169 -0.0904,-0.0229 -0.1757,-0.0342 -0.2553,-0.0342 -0.0793,0 -0.1645,0 -0.2554,0 -0.1134,0 -0.2268,0.006 -0.3403,0.0173 -0.1134,0.0113 -0.2272,0.0169 -0.3406,0.0169 -0.1134,0.0225 -0.2268,0.0455 -0.3406,0.068 -0.1135,0.0229 -0.2269,0.0567 -0.3403,0.1021 -0.454,0.1135 -0.8739,0.2896 -1.26,0.5281 -0.3857,0.2381 -0.7376,0.5389 -1.0557,0.9021 -0.2723,0.2952 -0.5107,0.6016 -0.7151,0.9193 -0.2043,0.3178 -0.3744,0.6697 -0.5107,1.0558 -0.0905,0.3856 -0.1589,0.783 -0.2043,1.1916 -0.0455,0.4086 -0.0567,0.8172 -0.0338,1.2258 0.0225,0.3861 0.0905,0.7718 0.2043,1.1579 0.1134,0.3861 0.261,0.7492 0.4424,1.0895 0.1818,0.3631 0.4086,0.6869 0.6813,0.9704 0.2722,0.284 0.5674,0.5506 0.8852,0.8004 0.3406,0.2268 0.6981,0.4142 1.0726,0.5618 0.3744,0.1476 0.7548,0.2441 1.1405,0.2896 0.1364,0.0225 0.2727,0.0394 0.4086,0.051 0.1364,0.0113 0.2614,0.0169 0.3748,0.0169 0.2723,0 0.5446,-0.0225 0.8173,-0.0679 0.2722,-0.0455 0.5332,-0.1139 0.783,-0.2043 0.3861,-0.1139 0.7436,-0.2727 1.0726,-0.477 0.3294,-0.2043 0.6415,-0.4541 0.9362,-0.7489 0.2952,-0.2497 0.5563,-0.5449 0.7835,-0.8856 0.2268,-0.3402 0.4086,-0.6921 0.5445,-1.0553 0.1138,-0.2726 0.1931,-0.5449 0.2385,-0.8172 0.0455,-0.2727 0.068,-0.5562 0.068,-0.8514 0,-0.1134 0,-0.2329 0,-0.3575 0,-0.1251 -0.0113,-0.2441 -0.0338,-0.3576 0.0225,-0.4086 -0.0113,-0.8059 -0.1022,-1.1916 -0.0908,-0.3861 -0.2272,-0.7605 -0.4086,-1.1237 -0.1817,-0.3861 -0.4086,-0.7323 -0.6812,-1.0388 -0.2723,-0.3065 -0.5675,-0.5731 -0.8852,-0.7999 -0.3177,-0.2498 -0.664,-0.4484 -1.0384,-0.596 -0.3749,-0.1476 -0.7662,-0.2442 -1.1748,-0.2896 z"
       style="fill:#000000;fill-opacity:1;fill-rule:evenodd"
       id="path860" />
  </g>
  <path
     d="m 64.820275,57.0689 -44.5684,159.9608 c -0.5844,-11.2276 -3.4607,-19.2197 -9.0461,-23.3872 z"
     style="fill:#9edbf4;fill-rule:evenodd"
     id="path863" />
  <path
     d="m 63.143475,61.3408 c -18.4885,44.9624 -34.8368,88.8027 -51.9377,132.3017 4.5561,-9.5551 9.5277,-10.2606 13.9004,-8.379 1.7155,-9.3663 15.5211,-58.3314 38.0373,-123.9227 z"
     style="fill:#51bde8;fill-rule:evenodd"
     id="path865" />
  <path
     d="m 61.182575,67.8088 c -23.105,66.1034 -37.0554,116.5822 -33.0954,147.3846 l 25.3021,-11.0317 c -8.4227,-22.2161 -10.5548,-71.1868 7.7933,-136.3529 z"
     style="fill:#9edbf4;fill-rule:evenodd"
     id="path867" />
  <path
     d="m 78.698675,32.4682 c -23.4875,87.2967 -15.9187,128.8558 -9.965,192.3941 11.7042,-10.0761 24.0939,-16.7253 37.580695,-17.8871 C 93.450675,156.4788 80.523275,98.716 78.698675,32.4682 Z"
     style="fill:#ffed39;fill-rule:evenodd"
     id="path869" />
  <path
     d="m 72.422775,57.9305 c -18.6923,66.1033 -7.6488,136.1293 -3.6891,166.9318 0.8175,-7.5961 7.7822,-12.5221 18.7056,-18.3347 -8.4227,-22.2167 -25.6423,-82.328 -15.0165,-148.5971 z"
     style="fill:#fdc900;fill-rule:evenodd"
     id="path871" />
  <path
     d="m 67.236075,24.3502 c -33.9257,62.0403 -30.7724,84.4204 -59.0061,147.9541 3.3099,-18.29 -3.7156,-33.6008 -7.9913,-43.8446 32.6848,-53.8833 37.1157,-60.1353 66.9974,-104.1095 z"
     style="fill:#f5a78d;fill-rule:evenodd"
     id="path873" />
  <path
     d="m 46.436775,55.2365 c -6.6597,8.1905 -30.5292,47.9939 -45.935,73.0025 7.3963,-7.983 15.2482,-10.4328 24.6866,-9.9723 6.3075,-28.1938 16.3569,-50.0207 21.2484,-63.0302 z"
     style="fill:#e30016;fill-rule:evenodd"
     id="path875" />
  <path
     d="m 83.486775,1e-4 c 41.085295,60.7543 57.073795,111.9657 85.428895,186.0255 -20.4922,4.6136 -44.7045,23.0519 -51.3048,35.1423 C 120.85027,131.574 106.03397,67.2824 83.486775,1e-4 Z"
     style="fill:#b1c900;fill-rule:evenodd"
     id="path877" />
  <path
     d="m 83.486675,0 c 23.456295,26.7996 52.985595,94.9919 85.428895,186.0259 -12.05,-0.7422 -26.0368,3.5092 -34.2159,11.3339 C 134.85847,126.8273 112.79147,47.1673 83.486675,0 Z"
     style="fill:#4fa227;fill-rule:evenodd"
     id="path879" />
  <path
     d="m 55.485575,275.0226 c 0,5.6753 -8.6408,5.6753 -8.6408,0 v -6.4415 c 0,-0.8836 -1.4729,-0.8836 -1.4729,-0.0196 v 6.4611 c 0,3.7705 2.9262,5.6753 5.7933,5.6753 2.8672,0 5.7933,-1.9048 5.7933,-5.6753 v -6.4611 c 0,-0.9427 -1.4729,-0.9427 -1.4729,0.0196 z m 13.758,5.047 c 0,0.9623 1.414,0.9623 1.414,-0.0196 v -4.5954 h 7.1678 c 0.8053,0 0.766,-1.2176 0,-1.2176 h -7.1678 v -4.9293 h 7.5411 c 0.8247,0 0.8247,-1.237 0,-1.237 h -8.0911 c -0.4713,0 -0.864,0.3927 -0.864,0.8444 z m 31.962605,-3.2207 c 0,-1.5906 -0.9819,-2.5922 -2.415505,-3.0439 1.021,-0.4123 1.511995,-1.3158 1.511995,-2.3368 0,-2.7888 -2.827895,-3.3975 -4.654095,-3.3975 h -4.6544 c -0.3929,0 -0.7266,0.3141 -0.7266,0.707 v 11.0759 c 0,0.3927 0.3337,0.707 0.7266,0.707 h 5.106 c 2.4745,0 5.105995,-0.7856 5.106005,-3.7117 z m -5.557605,-7.5019 c 1.2175,0 3.2205,0.432 3.2205,2.1212 0,1.4335 -1.4729,1.8852 -3.1618,1.8852 h -4.0061 v -4.0064 z m -3.9474,5.2827 h 4.988 c 1.7086,0 3.0441,0.6679 3.0441,2.2192 0,1.9835 -1.9049,2.4351 -3.6331,2.4351 h -4.399 z m 29.154105,1.3945 h -6.1859 l 3.1028,-6.1862 z m 0.6087,1.2372 1.5319,3.0439 c 0.3732,0.7659 1.8264,0.2749 1.3158,-0.5696 l -5.9112,-11.6259 c -0.13741,-0.2553 -0.373,-0.373 -0.6283,-0.373 -0.2553,0 -0.53031,0.1177 -0.64831,0.373 l -5.93059,11.6849 c -0.3536,0.7855 0.9426,1.2962 1.29599,0.5696 l 1.5908,-3.1029 z"
     style="fill:#000000;fill-opacity:1;fill-rule:evenodd"
     id="path881" />
</svg>
